<svg width="1440" height="399" viewBox="0 0 1440 399" fill="none" xmlns="http://www.w3.org/2000/svg">
<path fill-rule="evenodd" clip-rule="evenodd" d="M1443.38 1.77947C1443.38 1.77947 1486.28 -7.22509 1390.9 15.2773C1295.52 37.7798 1309.15 36.2798 1162.8 52.2773C1021.47 67.726 977.593 61.2773 765.137 52.2773C552.68 43.2772 520.888 36.7774 361.42 22.7773C201.952 8.77726 145.936 7.77735 85.3785 43.7773C24.821 79.7773 -10 141.277 -10 141.277V398.277H50.5576C111.115 398.277 232.23 398.277 353.345 398.277C474.46 398.277 595.576 398.277 716.691 398.277C837.806 398.277 958.921 398.277 1080.04 398.277C1201.15 398.277 1322.27 398.277 1382.82 398.277H1443.38L1443.38 1.77947Z" fill="#181818"/>
</svg>
