<svg width="32" height="32" viewBox="0 0 32 32" fill="none" xmlns="http://www.w3.org/2000/svg">
<path d="M15.5455 0.856451C15.5826 0.783887 15.6863 0.783887 15.7235 0.856451L20.3073 9.80856C20.3218 9.83692 20.349 9.85667 20.3805 9.86172L30.3109 11.4548C30.3914 11.4678 30.4235 11.5664 30.3659 11.6242L23.2685 18.75C23.246 18.7726 23.2356 18.8045 23.2405 18.836L24.794 28.7727C24.8066 28.8533 24.7227 28.9142 24.65 28.8774L15.6797 24.3293C15.6513 24.3148 15.6177 24.3148 15.5893 24.3293L6.61895 28.8774C6.54624 28.9142 6.46234 28.8533 6.47493 28.7727L8.02845 18.836C8.03337 18.8045 8.02299 18.7726 8.0005 18.75L0.903027 11.6242C0.845496 11.5664 0.877543 11.4678 0.958038 11.4548L10.8885 9.86172C10.9199 9.85667 10.9471 9.83692 10.9616 9.80856L15.5455 0.856451Z" fill="#FBDE06"/>
</svg>
